<svg xmlns="http://www.w3.org/2000/svg" version="1.1" xmlns:xlink="http://www.w3.org/1999/xlink" xmlns:svgjs="http://svgjs.dev/svgjs" width="100%" height="100%" viewBox="0 0 1000 600"><rect width="1000" height="600" x="0" y="0" fill="#020617"/><g><circle r="166.66666666666666" cx="397.67077128092444" cy="419.8930213340583" fill="#93c5fd" transform="matrix(0.5411157712084311,0,0,0.5411157712084311,0,72.78924061253598)"/><path d="M326.71901997898823 494.89301638577183L326.71901997898823 494.89301638577183Q312.658018577809 494.89301638577183 306.1425290017941 486.2456202940756Q299.60308541998506 477.6221782081735 299.60308541998506 460.35134003057516L299.60308541998506 460.35134003057516L299.60308541998506 440.99650334888383L316.63438353964165 440.99650334888383L316.63438353964165 459.27340976983743Q316.63438353964165 464.902601131468 317.0895096497309 469.6215402729199Q317.5446357598202 474.3404794143719 319.58072625232484 477.2149601096726Q321.59286273903535 480.0654867991791 326.2159858573106 480.0654867991791L326.2159858573106 480.0654867991791Q330.86306298138004 480.0654867991791 332.8272914565022 477.28682212705513Q334.8154739374185 474.5081574549311 335.2706000475078 469.50177024394907Q335.74968016339125 464.495383032967 335.74968016339125 457.9080314395696L335.74968016339125 457.9080314395696L335.74968016339125 344.89303210266405L353.1642423757546 344.89303210266405L353.1642423757546 457.23731927733274Q353.1642423757546 475.94539780258145 346.60084478815133 485.4072300912796Q340.0374472005481 494.89301638577183 326.71901997898823 494.89301638577183ZM383.226519647441 493.1204199570031L366.65034763787367 493.1204199570031L389.14315907860157 344.89303210266405L410.10291414850246 344.89303210266405L434.6078620759409 493.1204199570031L418.1754141011386 493.1204199570031L413.9834630871584 464.8307391140854L387.10706858609694 464.8307391140854L383.226519647441 493.1204199570031ZM399.8266456628025 372.3682767485799L389.0473430554249 450.6739216897295L411.7796945540946 450.6739216897295L400.0901397265384 372.3682767485799L399.8266456628025 372.3682767485799ZM495.73848486266894 493.1204199570031L450.94449402756646 493.1204199570031L450.94449402756646 344.89303210266405L468.383010245724 344.89303210266405L468.383010245724 478.7240624747055L495.73848486266894 478.7240624747055L495.73848486266894 493.1204199570031Z " fill="#020617" transform="matrix(0.5411157712084311,0,0,0.5411157712084311,0,72.78924061253598)"/><path d="M674.5039009518598 494.89300889361647L674.5039009518598 494.89300889361647Q660.5895534356266 494.89300889361647 654.1420193224827 486.3358036919807Q647.6707810398052 477.80230265987853 647.6707810398052 460.71159642614055L647.6707810398052 460.71159642614055L647.6707810398052 441.55862744297787L664.524445578207 441.55862744297787L664.524445578207 459.6449087971278Q664.524445578207 465.21538863752784 664.9748247993457 469.88511003565037Q665.4252040204844 474.55483143377296 667.4400584308419 477.39933177780705Q669.4312086716657 480.22012795230745 674.0061133916538 480.22012795230745L674.0061133916538 480.22012795230745Q678.6047222811756 480.22012795230745 680.5484641829322 477.4704442864078Q682.5159102542225 474.7207606205083 682.9662894753611 469.76658918798233Q683.4403728660335 464.81241775545635 683.4403728660335 458.2937711337116L683.4403728660335 458.2937711337116L683.4403728660335 346.45749927410594L700.6733041169732 346.45749927410594L700.6733041169732 457.6300543867703Q700.6733041169732 476.14301079252533 694.1783616647621 485.5061577583041Q687.6834192125509 494.89300889361647 674.5039009518598 494.89300889361647ZM744.0045260244252 494.22929214667516L744.0045260244252 494.22929214667516Q732.6739329873562 494.22929214667516 727.672353215763 485.43504524970325Q722.6707734441698 476.6407983527313 722.599660935569 461.0434547996112L722.599660935569 461.0434547996112L722.599660935569 448.8832158288656Q722.599660935569 440.63416483116686 725.4204571100695 435.18220583843487Q728.2649574541035 429.73024684570294 733.432466412432 426.0561005679923Q738.5999753707606 422.3819542902816 745.5927053831776 419.4189330985795Q752.6091395651283 416.479616076411 760.9293030714279 413.13732817217095L760.9293030714279 413.13732817217095L760.9293030714279 403.4660270024552Q760.9293030714279 395.4777218696262 760.431515511222 390.5235504371002Q759.933727951016 385.54567483504064 757.8951693711249 383.22266622074613Q755.8566107912338 380.87595343691805 751.3528185798466 380.87595343691805L751.3528185798466 380.87595343691805Q746.9438430465938 380.87595343691805 744.7156511104338 383.22266622074613Q742.5111633438073 385.54567483504064 741.8474465968661 390.5472546066338Q741.1837298499248 395.548834378227 741.1837298499248 403.56084368058964L741.1837298499248 403.56084368058964L741.1837298499248 407.8987067052416L724.1878402943214 407.8987067052416L724.1878402943214 404.2956729361318Q724.1878402943214 396.3073678033028 725.1834154147332 389.43315863855383Q726.1789905351452 382.55894947380483 729.0234908791792 377.4625530240772Q731.8442870536796 372.3898607438831 737.2962460464116 369.52165623031544Q742.7719092086772 366.62974754721415 751.6846769533172 366.62974754721415L751.6846769533172 366.62974754721415Q760.1944738158858 366.62974754721415 765.3856869437479 369.35572704358015Q770.6006042411437 372.05800237041245 773.3976962461105 377.2966238373419Q776.1947882510774 382.55894947380483 777.1903633714892 390.26280457223044Q778.1859384919012 397.966659670656 778.1859384919012 408.0646358919769L778.1859384919012 408.0646358919769L778.1859384919012 493.1389003481288L761.0241197495624 493.1389003481288L761.0241197495624 482.30609487126577Q760.2655863244865 484.7950326722956 758.1085068969275 487.59212467726235Q755.9277232998347 490.38921668222923 752.4432103783929 492.3092544144522Q748.9349932874177 494.22929214667516 744.0045260244252 494.22929214667516ZM748.8401766092832 480.38605713904275L748.8401766092832 480.38605713904275Q753.3439688206704 480.38605713904275 756.5914400467759 477.5178526254751Q759.8389112728814 474.6496481119074 760.9293030714279 471.8051477678734L760.9293030714279 471.8051477678734L760.9293030714279 424.23087951390374Q754.5054731278176 427.05167568840426 750.3809476289682 429.3509801331651Q746.2564221301188 431.62658040839233 743.9808218548917 434.1392223789557Q741.6815174101307 436.6281601799855 740.7570547983197 440.13637727096085Q739.8562963560423 443.64459436193624 739.8562963560423 448.9780325070001L739.8562963560423 448.9780325070001L739.8562963560423 460.54566723940525Q739.8562963560423 471.1414310209321 741.6815174101307 475.7637440799875Q743.5067384642193 480.38605713904275 748.8401766092832 480.38605713904275ZM817.7719016130418 493.1389003481288L800.610082870703 493.1389003481288L800.610082870703 368.14681439736563L817.7719016130418 368.14681439736563L817.7719016130418 382.0611619135989Q819.928981040601 374.807686036312 825.309827524732 370.7305688765299Q830.6906740088632 366.62974754721415 839.0108375151627 366.62974754721415L839.0108375151627 366.62974754721415Q839.176766701898 366.62974754721415 839.2241750409653 368.8342353138405Q839.2715833800326 371.06242725000055 839.2715833800326 373.88322342450095Q839.2715833800326 376.72772376853504 839.2715833800326 378.93221153516146Q839.2715833800326 381.1366993017878 839.2715833800326 381.1366993017878L839.2715833800326 381.1366993017878Q835.2655787288512 381.1366993017878 831.2595740776699 382.0848660831325Q827.2772735960223 383.05673703401084 823.7690565050469 385.35604147877166Q820.2608394140716 387.6316417539989 817.7719016130418 391.5428297270457L817.7719016130418 391.5428297270457L817.7719016130418 493.1389003481288ZM871.2722122504157 493.1389003481288L854.1103935080769 493.1389003481288L854.1103935080769 368.14681439736563L871.2722122504157 368.14681439736563L871.2722122504157 382.0611619135989Q873.4292916779748 374.807686036312 878.8101381621059 370.7305688765299Q884.190984646237 366.62974754721415 892.5111481525366 366.62974754721415L892.5111481525366 366.62974754721415Q892.6770773392719 366.62974754721415 892.7244856783392 368.8342353138405Q892.7718940174063 371.06242725000055 892.7718940174063 373.88322342450095Q892.7718940174063 376.72772376853504 892.7718940174063 378.93221153516146Q892.7718940174063 381.1366993017878 892.7718940174063 381.1366993017878L892.7718940174063 381.1366993017878Q888.7658893662251 381.1366993017878 884.7598847150439 382.0848660831325Q880.7775842333962 383.05673703401084 877.2693671424208 385.35604147877166Q873.7611500514455 387.6316417539989 871.2722122504157 391.5428297270457L871.2722122504157 391.5428297270457L871.2722122504157 493.1389003481288ZM926.1947730598065 494.22929214667516L926.1947730598065 494.22929214667516Q914.8641800227376 494.22929214667516 909.8626002511444 485.43504524970325Q904.8610204795511 476.6407983527313 904.7662038014166 461.0434547996112L904.7662038014166 461.0434547996112L904.7662038014166 448.8832158288656Q904.7662038014166 440.63416483116686 907.6107041454507 435.18220583843487Q910.4315003199513 429.73024684570294 915.5990092782797 426.0561005679923Q920.7665182366082 422.3819542902816 927.7592482490253 419.4189330985795Q934.775682430976 416.479616076411 943.0958459372756 413.13732817217095L943.0958459372756 413.13732817217095L943.0958459372756 403.4660270024552Q943.0958459372756 395.4777218696262 942.5980583770696 390.5235504371002Q942.1002708168637 385.54567483504064 940.0617122369727 383.22266622074613Q938.0231536570816 380.87595343691805 933.5193614456944 380.87595343691805L933.5193614456944 380.87595343691805Q929.1103859124414 380.87595343691805 926.9058981458151 383.22266622074613Q924.6777062096551 385.54567483504064 924.0139894627139 390.5472546066338Q923.3502727157725 395.548834378227 923.3502727157725 403.56084368058964L923.3502727157725 403.56084368058964L923.3502727157725 407.8987067052416L906.354383160169 407.8987067052416L906.354383160169 404.2956729361318Q906.354383160169 396.3073678033028 907.349958280581 389.43315863855383Q908.3455334009928 382.55894947380483 911.190033745027 377.4625530240772Q914.0108299195274 372.3898607438831 919.486493081793 369.52165623031544Q924.9384520745249 366.62974754721415 933.851219819165 366.62974754721415L933.851219819165 366.62974754721415Q942.3610166817334 366.62974754721415 947.5522298095956 369.35572704358015Q952.7671471069914 372.05800237041245 955.5642391119582 377.2966238373419Q958.3613311169249 382.55894947380483 959.356906237337 390.26280457223044Q960.3524813577488 397.966659670656 960.3524813577488 408.0646358919769L960.3524813577488 408.0646358919769L960.3524813577488 493.1389003481288L943.19066261541 493.1389003481288L943.19066261541 482.30609487126577Q942.4321291903343 484.7950326722956 940.2750497627751 487.59212467726235Q938.0942661656824 490.38921668222923 934.6097532442407 492.3092544144522Q931.1015361532653 494.22929214667516 926.1947730598065 494.22929214667516ZM931.0304236446646 480.38605713904275L931.0304236446646 480.38605713904275Q935.5105116865182 480.38605713904275 938.7579829126237 477.5178526254751Q942.0291583082628 474.6496481119074 943.0958459372756 471.8051477678734L943.0958459372756 471.8051477678734L943.0958459372756 424.23087951390374Q936.695720163199 427.05167568840426 932.5711946643496 429.3509801331651Q928.4466691655002 431.62658040839233 926.1473647207393 434.1392223789557Q923.8480602759785 436.6281601799855 922.947301833701 440.13637727096085Q922.02283922189 443.64459436193624 922.02283922189 448.9780325070001L922.02283922189 448.9780325070001L922.02283922189 460.54566723940525Q922.02283922189 471.1414310209321 923.8480602759785 475.7637440799875Q925.6969854996006 480.38605713904275 931.0304236446646 480.38605713904275ZM1002.0955239064486 494.22929214667516L1002.0955239064486 494.22929214667516Q992.850897788338 494.22929214667516 988.3234014074171 488.80103732347686Q983.7722008569626 483.3964866698122 982.3025423458785 474.10445221263427Q980.8565880043277 464.81241775545635 980.8565880043277 453.1262621753831L980.8565880043277 453.1262621753831L980.8565880043277 405.8838522948841Q980.8565880043277 394.7191884445504 982.8951465842188 385.85382903897766Q984.9337051641098 376.96476546387123 990.1486224615055 371.7972565055427Q995.3635397589014 366.62974754721415 1004.6792783856129 366.62974754721415L1004.6792783856129 366.62974754721415Q1009.6097456486052 366.62974754721415 1013.4735252825849 369.4742478912482Q1017.3610090860981 372.29504406574864 1019.352159326922 376.4669779036653L1019.352159326922 376.4669779036653L1019.352159326922 344.8930240848872L1036.5139780692607 344.8930240848872L1036.5139780692607 493.1389003481288L1019.352159326922 493.1389003481288L1019.352159326922 482.63795324473637Q1016.8632215258922 488.80103732347686 1012.2646126363704 491.5033126503092Q1007.6897079163823 494.22929214667516 1002.0955239064486 494.22929214667516ZM1008.0215662898529 480.3149446304419L1008.0215662898529 480.3149446304419Q1011.9327542628998 480.3149446304419 1014.4691004029968 478.3474985591517Q1017.0291507126274 476.3800524878615 1018.2380633588419 471.0466143427976Q1019.4469760050564 465.7131761977338 1019.4469760050564 455.8048333326818L1019.4469760050564 455.8048333326818L1019.4469760050564 405.64681059954796Q1019.4469760050564 393.46286745926875 1017.3847132556316 387.2286708719274Q1015.3461546757408 380.9707701150525 1008.448241341458 380.9707701150525L1008.448241341458 380.9707701150525Q1002.190340584583 381.04188262365335 1000.1043736656248 387.0864458547257Q998.0184067466664 393.1310090857981 998.0184067466664 406.04978148161945L998.0184067466664 406.04978148161945L998.0184067466664 456.56336675775754Q998.0184067466664 463.79313846551076 998.729531832675 469.12657661057466Q999.4406569186835 474.4600147556385 1001.5977363462428 477.39933177780705Q1003.7785199433354 480.3149446304419 1008.0215662898529 480.3149446304419ZM1146.264283009908 493.1389003481288L1101.937485982044 493.1389003481288L1101.937485982044 346.45749927410594L1119.1941214025173 346.45749927410594L1119.1941214025173 478.8926944584249L1146.264283009908 478.8926944584249L1146.264283009908 493.1389003481288ZM1186.1109919959185 494.63226302874665L1186.1109919959185 494.63226302874665Q1177.2693367598793 494.63226302874665 1171.76996942808 491.5981293284437Q1166.270602096281 488.5639956281407 1163.3075809045788 482.9224032791398Q1160.3682638824102 477.3045150996725 1159.277872083864 469.4347308145116Q1158.1874802853176 461.5649465293508 1158.1874802853176 451.79882868150054L1158.1874802853176 451.79882868150054L1158.1874802853176 407.5431441622373Q1158.1874802853176 395.80958024309683 1160.4393763910111 386.5649541249862Q1162.6912724967046 377.2966238373419 1168.7358357277772 371.963185692278Q1174.7803989588494 366.62974754721415 1186.1109919959185 366.62974754721415L1186.1109919959185 366.62974754721415Q1194.5970846889534 366.62974754721415 1200.0253395121517 369.68758541705074Q1205.4298901658165 372.72171911735376 1208.440319696586 378.26849478822015Q1211.4507492273551 383.7915662895529 1212.5648451954353 391.25837969264234Q1213.7026453330488 398.72519309573175 1213.7026453330488 407.5431441622373L1213.7026453330488 407.5431441622373L1213.7026453330488 451.79882868150054Q1213.7026453330488 461.3990173426154 1212.6833660431034 469.22139328870907Q1211.6877909226914 477.04376923480277 1208.8195864091235 482.7564740924045Q1205.951381895556 488.4691789500062 1200.4757187332905 491.55072098937643Q1195.0237597405585 494.63226302874665 1186.1109919959185 494.63226302874665ZM1186.1109919959185 480.38605713904275L1186.1109919959185 480.38605713904275Q1190.6147842073058 480.38605713904275 1192.8192719739322 477.39933177780705Q1195.0237597405585 474.3889022470376 1195.7822931656342 469.00805576290657Q1196.5171224211763 463.62720927877547 1196.5171224211763 456.56336675775754L1196.5171224211763 456.56336675775754L1196.5171224211763 404.1297437493965Q1196.5171224211763 397.1370137369794 1195.7822931656342 391.92209643958364Q1195.0237597405585 386.73088331172147 1192.771863634865 383.7915662895529Q1190.5199675291713 380.87595343691805 1186.1109919959185 380.87595343691805L1186.1109919959185 380.87595343691805Q1181.441270597796 380.87595343691805 1179.1182619835013 383.7915662895529Q1176.7715491996732 386.73088331172147 1176.0604241136648 391.92209643958364Q1175.3492990276563 397.1370137369794 1175.3492990276563 404.1297437493965L1175.3492990276563 404.1297437493965L1175.3492990276563 456.56336675775754Q1175.3492990276563 463.62720927877547 1176.0604241136648 469.00805576290657Q1176.7715491996732 474.3889022470376 1179.1182619835013 477.39933177780705Q1181.441270597796 480.38605713904275 1186.1109919959185 480.38605713904275ZM1266.2784933586117 493.1389003481288L1246.2010617636379 493.1389003481288L1228.114780409488 368.14681439736563L1243.6173072844736 368.14681439736563L1253.3597209627903 439.0459854724145L1256.773121375631 468.62878905036865L1257.3657256139716 468.62878905036865L1260.2813384666065 438.97487296381365L1268.9333603463767 368.14681439736563L1284.5307038994968 368.14681439736563L1266.2784933586117 493.1389003481288ZM1326.368563126331 494.63226302874665L1326.368563126331 494.63226302874665Q1317.3609787035566 494.63226302874665 1311.9090197108246 491.5033126503092Q1306.433356548559 488.3980664414054 1303.6125603740584 482.63795324473637Q1300.7680600300246 476.8778400480674 1299.8198932486798 468.8421265761712Q1298.871726467335 460.806413104275 1298.871726467335 451.06399942595834L1298.871726467335 451.06399942595834L1298.871726467335 406.87942741529605Q1298.871726467335 398.06147634879045 1300.1043432830832 390.68947962383555Q1301.3606642683649 383.29377872934697 1304.4422063077352 377.9366364147495Q1307.5237483471055 372.5557899306184 1313.0231156789046 369.5927687389163Q1318.522483010704 366.62974754721415 1327.0322798732723 366.62974754721415L1327.0322798732723 366.62974754721415Q1335.6131892444419 366.62974754721415 1340.851810711371 369.6401770779835Q1346.1141363478341 372.6269024392193 1348.8164116746664 378.10256560148486Q1351.5186870014986 383.5545245942168 1352.44314961331 391.09245050590704Q1353.3676122251209 398.6303764175973 1353.3676122251209 407.63796084037176L1353.3676122251209 407.63796084037176L1353.3676122251209 431.2236095263208L1316.0335452096742 431.2236095263208L1316.0335452096742 456.1366917061525Q1316.0335452096742 467.9650723034274 1317.6454287379602 474.17556472123505Q1319.2810164357797 480.38605713904275 1326.5344923130665 480.38605713904275L1326.5344923130665 480.38605713904275Q1331.2753262197898 480.38605713904275 1333.313884799681 477.4230359473406Q1335.352443379572 474.4600147556385 1335.8265267702445 469.10287244104103Q1336.276905991383 463.72202595690993 1336.276905991383 456.39743757102224L1336.276905991383 456.39743757102224L1336.276905991383 446.2994613497013L1353.0357538516505 446.2994613497013L1353.0357538516505 451.6328994947652Q1353.0357538516505 461.3990173426154 1352.2298120875073 469.3162099668436Q1351.447574492898 477.2334025910717 1348.8638200137339 482.8986991096062Q1346.2800655345695 488.5639956281407 1340.8992190504384 491.5981293284437Q1335.5183725663073 494.63226302874665 1326.368563126331 494.63226302874665ZM1315.9387285315395 404.2956729361318L1315.9387285315395 419.63227062438204L1336.276905991383 419.63227062438204L1336.276905991383 403.72677286732494Q1336.276905991383 396.2125511251683 1335.779118431177 391.09245050590704Q1335.281330870971 385.9723498866457 1333.3612931387481 383.34118706841423Q1331.4412554065252 380.7100242501827 1327.0322798732723 380.7100242501827L1327.0322798732723 380.7100242501827Q1322.10181261028 380.7100242501827 1319.7313956569183 383.7204537809521Q1317.3609787035566 386.73088331172147 1316.649853617548 392.0169131177181Q1315.9387285315395 397.30294292371474 1315.9387285315395 404.2956729361318L1315.9387285315395 404.2956729361318ZM1391.2705793093749 493.1389003481288L1374.2035772451704 493.1389003481288L1374.2035772451704 344.8930240848872L1391.2705793093749 344.8930240848872L1391.2705793093749 493.1389003481288ZM1434.6966178949615 494.22929214667516L1434.6966178949615 494.22929214667516Q1423.3660248578924 494.22929214667516 1418.3644450862994 485.43504524970325Q1413.3628653147061 476.6407983527313 1413.2680486365714 461.0434547996112L1413.2680486365714 461.0434547996112L1413.2680486365714 448.8832158288656Q1413.2680486365714 440.63416483116686 1416.1125489806054 435.18220583843487Q1418.9570493246397 429.73024684570294 1424.1008541134345 426.0561005679923Q1429.2683630717631 422.3819542902816 1436.2847972537138 419.4189330985795Q1443.2775272661306 416.479616076411 1451.621394941964 413.13732817217095L1451.621394941964 413.13732817217095L1451.621394941964 403.4660270024552Q1451.621394941964 395.4777218696262 1451.1236073817581 390.5235504371002Q1450.6021156520185 385.54567483504064 1448.5635570721274 383.22266622074613Q1446.5249984922364 380.87595343691805 1442.0212062808491 380.87595343691805L1442.0212062808491 380.87595343691805Q1437.6122307475962 380.87595343691805 1435.40774298097 383.22266622074613Q1433.2032552143435 385.54567483504064 1432.539538467402 390.5472546066338Q1431.8521175509272 395.548834378227 1431.8521175509272 403.56084368058964L1431.8521175509272 403.56084368058964L1431.8521175509272 407.8987067052416L1414.856227995324 407.8987067052416L1414.856227995324 404.2956729361318Q1414.856227995324 396.3073678033028 1415.851803115736 389.43315863855383Q1416.8710824056814 382.55894947380483 1419.6918785801818 377.4625530240772Q1422.5363789242158 372.3898607438831 1427.9883379169478 369.52165623031544Q1433.4402969096795 366.62974754721415 1442.35306465432 366.62974754721415L1442.35306465432 366.62974754721415Q1450.8628615168882 366.62974754721415 1456.077778814284 369.35572704358015Q1461.2689919421462 372.05800237041245 1464.066083947113 377.2966238373419Q1466.86317595208 382.55894947380483 1467.8587510724917 390.26280457223044Q1468.8543261929035 397.966659670656 1468.8543261929035 408.0646358919769L1468.8543261929035 408.0646358919769L1468.8543261929035 493.1389003481288L1451.692507450565 493.1389003481288L1451.692507450565 482.30609487126577Q1450.9576781950227 484.7950326722956 1448.77689459793 487.59212467726235Q1446.6198151703707 490.38921668222923 1443.1115980793957 492.3092544144522Q1439.6033809884202 494.22929214667516 1434.6966178949615 494.22929214667516ZM1439.5322684798193 480.38605713904275L1439.5322684798193 480.38605713904275Q1444.0360606912066 480.38605713904275 1447.283531917312 477.5178526254751Q1450.5310031434178 474.6496481119074 1451.621394941964 471.8051477678734L1451.621394941964 471.8051477678734L1451.621394941964 424.23087951390374Q1445.1975649983538 427.05167568840426 1441.0730394995044 429.3509801331651Q1436.948514000655 431.62658040839233 1434.6492095558942 434.1392223789557Q1432.373609280667 436.6281601799855 1431.4491466688557 440.13637727096085Q1430.5246840570449 443.64459436193624 1430.5246840570449 448.9780325070001L1430.5246840570449 448.9780325070001L1430.5246840570449 460.54566723940525Q1430.5246840570449 471.1414310209321 1432.373609280667 475.7637440799875Q1434.1988303347557 480.38605713904275 1439.5322684798193 480.38605713904275ZM1517.2819445500836 494.63226302874665L1517.2819445500836 494.63226302874665Q1508.2032476187082 494.63226302874665 1502.6564719478417 491.55072098937643Q1497.1096962769752 488.4691789500062 1494.2414917634078 482.6853615838036Q1491.37328724984 476.8778400480674 1490.3540079598943 468.8421265761712Q1489.3584328394825 460.806413104275 1489.3584328394825 450.96918274782394L1489.3584328394825 450.96918274782394L1489.3584328394825 409.13132352098967Q1489.3584328394825 396.63922617677343 1491.4443997584408 387.0627416851921Q1493.5303666773991 377.4625530240772 1499.6223382475387 372.05800237041245Q1505.6906056481448 366.62974754721415 1517.7086196016885 366.62974754721415L1517.7086196016885 366.62974754721415Q1526.0287831079881 366.62974754721415 1531.1488837272495 369.3794312131137Q1536.2926885160446 372.1291148790133 1538.9949638428766 377.2966238373419Q1541.697239169709 382.46413279567037 1542.6454059510538 389.6464961643564Q1543.6172769019322 396.80515536350873 1543.6172769019322 405.5519939214135L1543.6172769019322 405.5519939214135L1543.6172769019322 414.2277199707174L1526.7873165330639 414.2277199707174L1526.7873165330639 403.228985307119Q1526.7873165330639 396.046621938433 1526.3132331423917 391.1872671840415Q1525.8628539212527 386.30420826011635 1523.9428161890298 383.7915662895529Q1522.022778456807 381.3026284885231 1517.5426904149533 381.3026284885231L1517.5426904149533 381.3026284885231Q1512.7781523386961 381.3026284885231 1510.4551437244018 384.0049038153555Q1508.1084309405737 386.73088331172147 1507.3261933459644 391.7561672528483Q1506.5202515818214 396.80515536350873 1506.5202515818214 403.72677286732494L1506.5202515818214 403.72677286732494L1506.5202515818214 456.8952251312282Q1506.5202515818214 464.646488568721 1507.2076724982962 469.76658918798233Q1507.8713892452374 474.8866898072436 1510.1232853509312 477.4230359473406Q1512.3751814566247 479.98308625697126 1517.0211986852137 479.98308625697126L1517.0211986852137 479.98308625697126Q1521.524990896601 479.98308625697126 1523.563549476492 477.2571067606053Q1525.625812225917 474.55483143377296 1526.1947122947236 469.4347308145116Q1526.7873165330639 464.31463019525034 1526.7873165330639 457.22708350469884L1526.7873165330639 457.22708350469884L1526.7873165330639 445.1379570425541L1543.6172769019322 445.1379570425541L1543.6172769019322 453.22107885351755Q1543.6172769019322 462.4657049716282 1542.692814290121 470.05103922238567Q1541.7920558478436 477.6363734731432 1539.0660763514775 483.1357408049424Q1536.3638010246452 488.6351081367415 1531.125179557716 491.64553766751095Q1525.8628539212527 494.63226302874665 1517.2819445500836 494.63226302874665ZM1590.0300408487544 494.63226302874665L1590.0300408487544 494.63226302874665Q1581.02245642598 494.63226302874665 1575.570497433248 491.5033126503092Q1570.1185384405162 488.3980664414054 1567.274038096482 482.63795324473637Q1564.4532419219818 476.8778400480674 1563.4813709711034 468.8421265761712Q1562.5332041897586 460.806413104275 1562.5332041897586 451.06399942595834L1562.5332041897586 451.06399942595834L1562.5332041897586 406.87942741529605Q1562.5332041897586 398.06147634879045 1563.7895251750401 390.68947962383555Q1565.0221419907884 383.29377872934697 1568.1036840301585 377.9366364147495Q1571.2089302390625 372.5557899306184 1576.7082975708615 369.5927687389163Q1582.2076649026608 366.62974754721415 1590.6937575956958 366.62974754721415L1590.6937575956958 366.62974754721415Q1599.2746669668652 366.62974754721415 1604.5369926033281 369.6401770779835Q1609.7756140702577 372.6269024392193 1612.5015935666233 378.10256560148486Q1615.2038688934558 383.5545245942168 1616.1046273357333 391.09245050590704Q1617.0290899475444 398.6303764175973 1617.0290899475444 407.63796084037176L1617.0290899475444 407.63796084037176L1617.0290899475444 431.2236095263208L1579.6950229320973 431.2236095263208L1579.6950229320973 456.1366917061525Q1579.6950229320973 467.9650723034274 1581.330610629917 474.17556472123505Q1582.9424941582029 480.38605713904275 1590.1959700354898 480.38605713904275L1590.1959700354898 480.38605713904275Q1594.960508111747 480.38605713904275 1596.9990666916378 477.4230359473406Q1599.0376252715291 474.4600147556385 1599.4880044926676 469.10287244104103Q1599.9383837138064 463.72202595690993 1599.9383837138064 456.39743757102224L1599.9383837138064 456.39743757102224L1599.9383837138064 446.2994613497013L1616.6972315740736 446.2994613497013L1616.6972315740736 451.6328994947652Q1616.6972315740736 461.3990173426154 1615.9149939794643 469.3162099668436Q1615.1090522153215 477.2334025910717 1612.525297736157 482.8986991096062Q1609.9415432569929 488.5639956281407 1604.5844009423954 491.5981293284437Q1599.203554458264 494.63226302874665 1590.0300408487544 494.63226302874665ZM1579.6239104234965 404.2956729361318L1579.6239104234965 419.63227062438204L1599.9383837138064 419.63227062438204L1599.9383837138064 403.72677286732494Q1599.9383837138064 396.2125511251683 1599.4405961536004 391.09245050590704Q1598.9428085933946 385.9723498866457 1597.0227708611717 383.34118706841423Q1595.1264372984824 380.7100242501827 1590.6937575956958 380.7100242501827L1590.6937575956958 380.7100242501827Q1585.7869945022371 380.7100242501827 1583.4165775488755 383.7204537809521Q1581.02245642598 386.73088331172147 1580.3350355095051 392.0169131177181Q1579.6239104234965 397.30294292371474 1579.6239104234965 404.2956729361318L1579.6239104234965 404.2956729361318Z " fill="#3b82f6" transform="matrix(0.5411157712084311,0,0,0.5411157712084311,0,72.78924061253598)"/></g></svg>